<mxfile host="Electron" agent="Mozilla/5.0 (X11; Linux x86_64) AppleWebKit/537.36 (KHTML, like Gecko) draw.io/28.1.2 Chrome/138.0.7204.243 Electron/37.4.0 Safari/537.36" version="28.1.2">
  <diagram name="Bip-ACT-Architecture" id="gT_64YqKhKB-KRTLa8XP">
    <mxGraphModel dx="1595" dy="998" grid="1" gridSize="10" guides="1" tooltips="1" connect="1" arrows="1" fold="1" page="1" pageScale="1" pageWidth="810" pageHeight="925" math="0" shadow="0">
      <root>
        <mxCell id="0" />
        <mxCell id="1" parent="0" />
        <mxCell id="4KxzYod9J9JX9YI3FSrh-114" value="" style="rounded=0;whiteSpace=wrap;html=1;fillColor=#e1d5e7;strokeColor=#9673a6;" parent="1" vertex="1">
          <mxGeometry x="627" y="549" width="168.5" height="192" as="geometry" />
        </mxCell>
        <mxCell id="4KxzYod9J9JX9YI3FSrh-44" value="" style="edgeStyle=orthogonalEdgeStyle;rounded=0;orthogonalLoop=1;jettySize=auto;html=1;entryX=0.5;entryY=0;entryDx=0;entryDy=0;entryPerimeter=0;exitX=0.991;exitY=0.416;exitDx=0;exitDy=0;exitPerimeter=0;" parent="1" source="4KxzYod9J9JX9YI3FSrh-20" target="4KxzYod9J9JX9YI3FSrh-2" edge="1">
          <mxGeometry relative="1" as="geometry">
            <Array as="points">
              <mxPoint x="324" y="245" />
              <mxPoint x="324" y="241" />
              <mxPoint x="413" y="241" />
            </Array>
          </mxGeometry>
        </mxCell>
        <mxCell id="4KxzYod9J9JX9YI3FSrh-20" value="" style="whiteSpace=wrap;html=1;shape=mxgraph.basic.document;fillColor=#f5f5f5;fontColor=#333333;strokeColor=#666666;" parent="1" vertex="1">
          <mxGeometry x="8" y="41" width="320" height="490" as="geometry" />
        </mxCell>
        <mxCell id="4KxzYod9J9JX9YI3FSrh-41" value="2" style="shape=cylinder3;whiteSpace=wrap;html=1;boundedLbl=1;backgroundOutline=1;size=15;fillColor=#dae8fc;strokeColor=#6c8ebf;" parent="1" vertex="1">
          <mxGeometry x="88" y="344" width="60" height="47" as="geometry" />
        </mxCell>
        <mxCell id="4KxzYod9J9JX9YI3FSrh-103" style="edgeStyle=orthogonalEdgeStyle;rounded=0;orthogonalLoop=1;jettySize=auto;html=1;exitX=0.5;exitY=1;exitDx=0;exitDy=0;exitPerimeter=0;" parent="1" source="4KxzYod9J9JX9YI3FSrh-2" edge="1">
          <mxGeometry relative="1" as="geometry">
            <mxPoint x="475" y="391" as="targetPoint" />
          </mxGeometry>
        </mxCell>
        <mxCell id="4KxzYod9J9JX9YI3FSrh-2" value="" style="sketch=0;aspect=fixed;pointerEvents=1;shadow=0;dashed=0;html=1;strokeColor=none;labelPosition=center;verticalLabelPosition=bottom;verticalAlign=top;align=center;fillColor=#00188D;shape=mxgraph.mscae.enterprise.filter" parent="1" vertex="1">
          <mxGeometry x="365" y="284" width="96.67" height="87" as="geometry" />
        </mxCell>
        <mxCell id="4KxzYod9J9JX9YI3FSrh-4" value="24" style="shape=cylinder3;whiteSpace=wrap;html=1;boundedLbl=1;backgroundOutline=1;size=15;fillColor=#e1d5e7;strokeColor=#9673a6;" parent="1" vertex="1">
          <mxGeometry x="88" y="304" width="60" height="70" as="geometry" />
        </mxCell>
        <mxCell id="4KxzYod9J9JX9YI3FSrh-5" value="&lt;b&gt;&lt;font style=&quot;font-size: 14px;&quot;&gt;config.yaml&lt;/font&gt;&lt;/b&gt;" style="whiteSpace=wrap;html=1;shape=mxgraph.basic.document;fillColor=#dae8fc;strokeColor=#6c8ebf;" parent="1" vertex="1">
          <mxGeometry x="31" y="706" width="100" height="100" as="geometry" />
        </mxCell>
        <mxCell id="4KxzYod9J9JX9YI3FSrh-120" style="edgeStyle=orthogonalEdgeStyle;rounded=0;orthogonalLoop=1;jettySize=auto;html=1;exitX=1;exitY=0.5;exitDx=0;exitDy=0;entryX=0;entryY=0.5;entryDx=0;entryDy=0;" parent="1" source="4KxzYod9J9JX9YI3FSrh-8" target="4KxzYod9J9JX9YI3FSrh-114" edge="1">
          <mxGeometry relative="1" as="geometry" />
        </mxCell>
        <mxCell id="4KxzYod9J9JX9YI3FSrh-8" value="&lt;b&gt;&lt;font style=&quot;font-size: 16px;&quot;&gt;train.py&lt;/font&gt;&lt;/b&gt;" style="rounded=1;whiteSpace=wrap;html=1;fillColor=#f8cecc;strokeColor=#b85450;" parent="1" vertex="1">
          <mxGeometry x="460" y="615" width="120" height="60" as="geometry" />
        </mxCell>
        <mxCell id="4KxzYod9J9JX9YI3FSrh-10" value="&lt;b&gt;&lt;font style=&quot;font-size: 18px;&quot;&gt;Full Dataset&lt;/font&gt;&lt;/b&gt;" style="text;html=1;align=center;verticalAlign=middle;resizable=0;points=[];autosize=1;strokeColor=none;fillColor=none;" parent="1" vertex="1">
          <mxGeometry x="68" y="1" width="130" height="40" as="geometry" />
        </mxCell>
        <mxCell id="4KxzYod9J9JX9YI3FSrh-15" value="Hand Pressures" style="text;html=1;align=center;verticalAlign=middle;resizable=0;points=[];autosize=1;strokeColor=none;fillColor=none;" parent="1" vertex="1">
          <mxGeometry x="143" y="329" width="110" height="30" as="geometry" />
        </mxCell>
        <mxCell id="4KxzYod9J9JX9YI3FSrh-17" value="Arm Joint Velocites" style="text;html=1;align=center;verticalAlign=middle;resizable=0;points=[];autosize=1;strokeColor=none;fillColor=none;" parent="1" vertex="1">
          <mxGeometry x="141" y="215" width="130" height="30" as="geometry" />
        </mxCell>
        <mxCell id="4KxzYod9J9JX9YI3FSrh-18" value="" style="sketch=0;pointerEvents=1;shadow=0;dashed=0;html=1;strokeColor=none;fillColor=#505050;labelPosition=center;verticalLabelPosition=bottom;verticalAlign=top;outlineConnect=0;align=center;shape=mxgraph.office.devices.video_camera;" parent="1" vertex="1">
          <mxGeometry x="37" y="101" width="52" height="25" as="geometry" />
        </mxCell>
        <mxCell id="4KxzYod9J9JX9YI3FSrh-21" value="data.json" style="text;html=1;align=center;verticalAlign=middle;resizable=0;points=[];autosize=1;strokeColor=none;fillColor=none;" parent="1" vertex="1">
          <mxGeometry x="108" y="502" width="70" height="30" as="geometry" />
        </mxCell>
        <mxCell id="4KxzYod9J9JX9YI3FSrh-22" value="States&lt;div&gt;28-110&lt;/div&gt;" style="text;html=1;align=center;verticalAlign=middle;resizable=0;points=[];autosize=1;strokeColor=none;fillColor=none;" parent="1" vertex="1">
          <mxGeometry x="18" y="259" width="60" height="40" as="geometry" />
        </mxCell>
        <mxCell id="4KxzYod9J9JX9YI3FSrh-23" value="Actions&lt;div&gt;28-30&lt;/div&gt;" style="text;html=1;align=center;verticalAlign=middle;resizable=0;points=[];autosize=1;strokeColor=none;fillColor=none;" parent="1" vertex="1">
          <mxGeometry x="18" y="427" width="60" height="40" as="geometry" />
        </mxCell>
        <mxCell id="4KxzYod9J9JX9YI3FSrh-24" value="Camera Images&lt;div&gt;1-6&lt;/div&gt;" style="text;html=1;align=center;verticalAlign=middle;resizable=0;points=[];autosize=1;strokeColor=none;fillColor=none;" parent="1" vertex="1">
          <mxGeometry x="8" y="46" width="110" height="40" as="geometry" />
        </mxCell>
        <mxCell id="4KxzYod9J9JX9YI3FSrh-25" value="left_head" style="rounded=0;whiteSpace=wrap;html=1;fillColor=#dae8fc;strokeColor=#6c8ebf;" parent="1" vertex="1">
          <mxGeometry x="133" y="51" width="105" height="20" as="geometry" />
        </mxCell>
        <mxCell id="4KxzYod9J9JX9YI3FSrh-26" value="right_head" style="rounded=0;whiteSpace=wrap;html=1;fillColor=#d5e8d4;strokeColor=#82b366;" parent="1" vertex="1">
          <mxGeometry x="133" y="71" width="105" height="20" as="geometry" />
        </mxCell>
        <mxCell id="4KxzYod9J9JX9YI3FSrh-27" value="left_wrist" style="rounded=0;whiteSpace=wrap;html=1;fillColor=#ffe6cc;strokeColor=#d79b00;" parent="1" vertex="1">
          <mxGeometry x="133" y="91" width="105" height="20" as="geometry" />
        </mxCell>
        <mxCell id="4KxzYod9J9JX9YI3FSrh-28" value="right_wrist" style="rounded=0;whiteSpace=wrap;html=1;fillColor=#fff2cc;strokeColor=#d6b656;" parent="1" vertex="1">
          <mxGeometry x="133" y="111" width="105" height="20" as="geometry" />
        </mxCell>
        <mxCell id="4KxzYod9J9JX9YI3FSrh-29" value="left_active" style="rounded=0;whiteSpace=wrap;html=1;fillColor=#f8cecc;strokeColor=#b85450;" parent="1" vertex="1">
          <mxGeometry x="133" y="131" width="105" height="20" as="geometry" />
        </mxCell>
        <mxCell id="4KxzYod9J9JX9YI3FSrh-30" value="right_active" style="rounded=0;whiteSpace=wrap;html=1;fillColor=#e1d5e7;strokeColor=#9673a6;" parent="1" vertex="1">
          <mxGeometry x="133" y="151" width="105" height="20" as="geometry" />
        </mxCell>
        <mxCell id="4KxzYod9J9JX9YI3FSrh-32" value="14" style="shape=cylinder3;whiteSpace=wrap;html=1;boundedLbl=1;backgroundOutline=1;size=15;fillColor=#f8cecc;strokeColor=#b85450;" parent="1" vertex="1">
          <mxGeometry x="88" y="284" width="60" height="50" as="geometry" />
        </mxCell>
        <mxCell id="4KxzYod9J9JX9YI3FSrh-31" value="Arm Joint Torques" style="text;html=1;align=center;verticalAlign=middle;resizable=0;points=[];autosize=1;strokeColor=none;fillColor=none;" parent="1" vertex="1">
          <mxGeometry x="143" y="236" width="120" height="30" as="geometry" />
        </mxCell>
        <mxCell id="4KxzYod9J9JX9YI3FSrh-33" value="14" style="shape=cylinder3;whiteSpace=wrap;html=1;boundedLbl=1;backgroundOutline=1;size=15;fillColor=#fff2cc;strokeColor=#d6b656;" parent="1" vertex="1">
          <mxGeometry x="88" y="264" width="60" height="50" as="geometry" />
        </mxCell>
        <mxCell id="4KxzYod9J9JX9YI3FSrh-14" value="14" style="shape=cylinder3;whiteSpace=wrap;html=1;boundedLbl=1;backgroundOutline=1;size=15;fillColor=#ffe6cc;strokeColor=#d79b00;" parent="1" vertex="1">
          <mxGeometry x="88" y="244" width="60" height="50" as="geometry" />
        </mxCell>
        <mxCell id="4KxzYod9J9JX9YI3FSrh-16" value="14" style="shape=cylinder3;whiteSpace=wrap;html=1;boundedLbl=1;backgroundOutline=1;size=15;fillColor=#d5e8d4;strokeColor=#82b366;" parent="1" vertex="1">
          <mxGeometry x="88" y="224" width="60" height="50" as="geometry" />
        </mxCell>
        <mxCell id="4KxzYod9J9JX9YI3FSrh-34" value="14" style="shape=cylinder3;whiteSpace=wrap;html=1;boundedLbl=1;backgroundOutline=1;size=15;fillColor=#dae8fc;strokeColor=#6c8ebf;" parent="1" vertex="1">
          <mxGeometry x="88" y="204" width="60" height="50" as="geometry" />
        </mxCell>
        <mxCell id="4KxzYod9J9JX9YI3FSrh-35" value="Arm Joint Positions" style="text;html=1;align=center;verticalAlign=middle;resizable=0;points=[];autosize=1;strokeColor=none;fillColor=none;" parent="1" vertex="1">
          <mxGeometry x="141" y="194" width="130" height="30" as="geometry" />
        </mxCell>
        <mxCell id="4KxzYod9J9JX9YI3FSrh-37" value="Hand Joint Velocites" style="text;html=1;align=center;verticalAlign=middle;resizable=0;points=[];autosize=1;strokeColor=none;fillColor=none;" parent="1" vertex="1">
          <mxGeometry x="143" y="279" width="130" height="30" as="geometry" />
        </mxCell>
        <mxCell id="4KxzYod9J9JX9YI3FSrh-38" value="Hand Joint Torques" style="text;html=1;align=center;verticalAlign=middle;resizable=0;points=[];autosize=1;strokeColor=none;fillColor=none;" parent="1" vertex="1">
          <mxGeometry x="140" y="299" width="130" height="30" as="geometry" />
        </mxCell>
        <mxCell id="4KxzYod9J9JX9YI3FSrh-39" value="Hand Joint Positions" style="text;html=1;align=center;verticalAlign=middle;resizable=0;points=[];autosize=1;strokeColor=none;fillColor=none;" parent="1" vertex="1">
          <mxGeometry x="143" y="256" width="130" height="30" as="geometry" />
        </mxCell>
        <mxCell id="4KxzYod9J9JX9YI3FSrh-40" value="14" style="shape=cylinder3;whiteSpace=wrap;html=1;boundedLbl=1;backgroundOutline=1;size=15;fillColor=#f5f5f5;strokeColor=#666666;fontColor=#333333;" parent="1" vertex="1">
          <mxGeometry x="88" y="184" width="60" height="50" as="geometry" />
        </mxCell>
        <mxCell id="4KxzYod9J9JX9YI3FSrh-42" value="Active Cam&lt;div&gt;Joint Positions&lt;/div&gt;" style="text;html=1;align=center;verticalAlign=middle;resizable=0;points=[];autosize=1;strokeColor=none;fillColor=none;" parent="1" vertex="1">
          <mxGeometry x="143" y="359" width="100" height="40" as="geometry" />
        </mxCell>
        <mxCell id="4KxzYod9J9JX9YI3FSrh-43" value="&lt;font style=&quot;font-size: 18px;&quot;&gt;&lt;b style=&quot;&quot;&gt;Feature Filter&lt;/b&gt;&lt;/font&gt;" style="text;html=1;align=center;verticalAlign=middle;resizable=0;points=[];autosize=1;strokeColor=none;fillColor=none;" parent="1" vertex="1">
          <mxGeometry x="328" y="184" width="140" height="40" as="geometry" />
        </mxCell>
        <mxCell id="4KxzYod9J9JX9YI3FSrh-45" value="2" style="shape=cylinder3;whiteSpace=wrap;html=1;boundedLbl=1;backgroundOutline=1;size=15;fillColor=#dae8fc;strokeColor=#6c8ebf;" parent="1" vertex="1">
          <mxGeometry x="88" y="447" width="60" height="47" as="geometry" />
        </mxCell>
        <mxCell id="4KxzYod9J9JX9YI3FSrh-46" value="14" style="shape=cylinder3;whiteSpace=wrap;html=1;boundedLbl=1;backgroundOutline=1;size=15;fillColor=#ffe6cc;strokeColor=#d79b00;" parent="1" vertex="1">
          <mxGeometry x="88" y="427" width="60" height="50" as="geometry" />
        </mxCell>
        <mxCell id="4KxzYod9J9JX9YI3FSrh-47" value="Arm Joint Positions" style="text;html=1;align=center;verticalAlign=middle;resizable=0;points=[];autosize=1;strokeColor=none;fillColor=none;" parent="1" vertex="1">
          <mxGeometry x="141" y="417" width="130" height="30" as="geometry" />
        </mxCell>
        <mxCell id="4KxzYod9J9JX9YI3FSrh-48" value="Hand Joint Positions" style="text;html=1;align=center;verticalAlign=middle;resizable=0;points=[];autosize=1;strokeColor=none;fillColor=none;" parent="1" vertex="1">
          <mxGeometry x="143" y="438" width="130" height="30" as="geometry" />
        </mxCell>
        <mxCell id="4KxzYod9J9JX9YI3FSrh-49" value="14" style="shape=cylinder3;whiteSpace=wrap;html=1;boundedLbl=1;backgroundOutline=1;size=15;fillColor=#f5f5f5;strokeColor=#666666;fontColor=#333333;" parent="1" vertex="1">
          <mxGeometry x="88" y="407" width="60" height="50" as="geometry" />
        </mxCell>
        <mxCell id="4KxzYod9J9JX9YI3FSrh-50" value="Active Cam&lt;div&gt;Joint Positions&lt;/div&gt;" style="text;html=1;align=center;verticalAlign=middle;resizable=0;points=[];autosize=1;strokeColor=none;fillColor=none;" parent="1" vertex="1">
          <mxGeometry x="143" y="462" width="100" height="40" as="geometry" />
        </mxCell>
        <mxCell id="OsjNQ7yL5HzrJW9Y9b05-1" style="edgeStyle=orthogonalEdgeStyle;rounded=0;orthogonalLoop=1;jettySize=auto;html=1;exitX=0.996;exitY=0.776;exitDx=0;exitDy=0;entryX=-0.007;entryY=0.681;entryDx=0;entryDy=0;entryPerimeter=0;exitPerimeter=0;" edge="1" parent="1" source="4KxzYod9J9JX9YI3FSrh-51" target="4KxzYod9J9JX9YI3FSrh-60">
          <mxGeometry relative="1" as="geometry">
            <mxPoint x="218" y="847" as="targetPoint" />
            <mxPoint x="177.5" y="623.5" as="sourcePoint" />
            <Array as="points">
              <mxPoint x="198" y="635" />
              <mxPoint x="198" y="847" />
            </Array>
          </mxGeometry>
        </mxCell>
        <mxCell id="OsjNQ7yL5HzrJW9Y9b05-2" style="edgeStyle=orthogonalEdgeStyle;rounded=0;orthogonalLoop=1;jettySize=auto;html=1;exitX=1;exitY=0.5;exitDx=0;exitDy=0;entryX=0;entryY=0.667;entryDx=0;entryDy=0;entryPerimeter=0;" edge="1" parent="1" source="4KxzYod9J9JX9YI3FSrh-51" target="4KxzYod9J9JX9YI3FSrh-64">
          <mxGeometry relative="1" as="geometry">
            <mxPoint x="218" y="737" as="targetPoint" />
            <Array as="points">
              <mxPoint x="218" y="616" />
              <mxPoint x="218" y="737" />
            </Array>
          </mxGeometry>
        </mxCell>
        <mxCell id="4KxzYod9J9JX9YI3FSrh-51" value="&lt;font style=&quot;font-size: 16px;&quot;&gt;&lt;b&gt;run_ablation_study&lt;/b&gt;&lt;/font&gt;" style="rounded=1;whiteSpace=wrap;html=1;fillColor=#d5e8d4;strokeColor=#82b366;" parent="1" vertex="1">
          <mxGeometry x="9" y="581" width="169" height="70" as="geometry" />
        </mxCell>
        <mxCell id="4KxzYod9J9JX9YI3FSrh-67" style="edgeStyle=orthogonalEdgeStyle;rounded=0;orthogonalLoop=1;jettySize=auto;html=1;exitX=0.857;exitY=0;exitDx=0;exitDy=0;entryX=0.4;entryY=0.5;entryDx=0;entryDy=0;entryPerimeter=0;exitPerimeter=0;" parent="1" source="4KxzYod9J9JX9YI3FSrh-54" target="4KxzYod9J9JX9YI3FSrh-2" edge="1">
          <mxGeometry relative="1" as="geometry">
            <mxPoint x="408" y="322" as="targetPoint" />
            <mxPoint x="408" y="542" as="sourcePoint" />
            <Array as="points">
              <mxPoint x="358" y="328" />
            </Array>
          </mxGeometry>
        </mxCell>
        <mxCell id="4KxzYod9J9JX9YI3FSrh-54" value="&lt;b&gt;Filter Settings&lt;/b&gt;" style="swimlane;fontStyle=0;childLayout=stackLayout;horizontal=1;startSize=30;horizontalStack=0;resizeParent=1;resizeParentMax=0;resizeLast=0;collapsible=1;marginBottom=0;whiteSpace=wrap;html=1;fillColor=#fff2cc;strokeColor=#d6b656;" parent="1" vertex="1">
          <mxGeometry x="238" y="547" width="140" height="120" as="geometry" />
        </mxCell>
        <mxCell id="4KxzYod9J9JX9YI3FSrh-55" value="Arm Torques = False" style="text;strokeColor=none;fillColor=none;align=left;verticalAlign=middle;spacingLeft=4;spacingRight=4;overflow=hidden;points=[[0,0.5],[1,0.5]];portConstraint=eastwest;rotatable=0;whiteSpace=wrap;html=1;" parent="4KxzYod9J9JX9YI3FSrh-54" vertex="1">
          <mxGeometry y="30" width="140" height="30" as="geometry" />
        </mxCell>
        <mxCell id="4KxzYod9J9JX9YI3FSrh-56" value="Hand Pressures = True" style="text;strokeColor=none;fillColor=none;align=left;verticalAlign=middle;spacingLeft=4;spacingRight=4;overflow=hidden;points=[[0,0.5],[1,0.5]];portConstraint=eastwest;rotatable=0;whiteSpace=wrap;html=1;" parent="4KxzYod9J9JX9YI3FSrh-54" vertex="1">
          <mxGeometry y="60" width="140" height="30" as="geometry" />
        </mxCell>
        <mxCell id="4KxzYod9J9JX9YI3FSrh-57" value="Head Cameras = False" style="text;strokeColor=none;fillColor=none;align=left;verticalAlign=middle;spacingLeft=4;spacingRight=4;overflow=hidden;points=[[0,0.5],[1,0.5]];portConstraint=eastwest;rotatable=0;whiteSpace=wrap;html=1;" parent="4KxzYod9J9JX9YI3FSrh-54" vertex="1">
          <mxGeometry y="90" width="140" height="30" as="geometry" />
        </mxCell>
        <mxCell id="4KxzYod9J9JX9YI3FSrh-58" style="edgeStyle=orthogonalEdgeStyle;rounded=0;orthogonalLoop=1;jettySize=auto;html=1;exitX=0.999;exitY=0.22;exitDx=0;exitDy=0;entryX=0.001;entryY=0.635;entryDx=0;entryDy=0;entryPerimeter=0;exitPerimeter=0;" parent="1" source="4KxzYod9J9JX9YI3FSrh-51" target="4KxzYod9J9JX9YI3FSrh-55" edge="1">
          <mxGeometry relative="1" as="geometry">
            <Array as="points">
              <mxPoint x="238" y="596" />
            </Array>
          </mxGeometry>
        </mxCell>
        <mxCell id="4KxzYod9J9JX9YI3FSrh-59" value="&lt;b&gt;ACT Parameter&lt;/b&gt;" style="swimlane;fontStyle=0;childLayout=stackLayout;horizontal=1;startSize=30;horizontalStack=0;resizeParent=1;resizeParentMax=0;resizeLast=0;collapsible=1;marginBottom=0;whiteSpace=wrap;html=1;fillColor=#fff2cc;strokeColor=#d6b656;" parent="1" vertex="1">
          <mxGeometry x="238" y="797" width="173" height="120" as="geometry" />
        </mxCell>
        <mxCell id="4KxzYod9J9JX9YI3FSrh-60" value="&lt;span style=&quot;background-color: transparent; color: light-dark(rgb(0, 0, 0), rgb(255, 255, 255));&quot;&gt;Decoder Layers = 7&lt;/span&gt;" style="text;strokeColor=none;fillColor=none;align=left;verticalAlign=middle;spacingLeft=4;spacingRight=4;overflow=hidden;points=[[0,0.5],[1,0.5]];portConstraint=eastwest;rotatable=0;whiteSpace=wrap;html=1;" parent="4KxzYod9J9JX9YI3FSrh-59" vertex="1">
          <mxGeometry y="30" width="173" height="30" as="geometry" />
        </mxCell>
        <mxCell id="4KxzYod9J9JX9YI3FSrh-61" value="ImageBackbone = ResNet18" style="text;strokeColor=none;fillColor=none;align=left;verticalAlign=middle;spacingLeft=4;spacingRight=4;overflow=hidden;points=[[0,0.5],[1,0.5]];portConstraint=eastwest;rotatable=0;whiteSpace=wrap;html=1;" parent="4KxzYod9J9JX9YI3FSrh-59" vertex="1">
          <mxGeometry y="60" width="173" height="30" as="geometry" />
        </mxCell>
        <mxCell id="4KxzYod9J9JX9YI3FSrh-62" value="Learning-rate = 5e-5" style="text;strokeColor=none;fillColor=none;align=left;verticalAlign=middle;spacingLeft=4;spacingRight=4;overflow=hidden;points=[[0,0.5],[1,0.5]];portConstraint=eastwest;rotatable=0;whiteSpace=wrap;html=1;" parent="4KxzYod9J9JX9YI3FSrh-59" vertex="1">
          <mxGeometry y="90" width="173" height="30" as="geometry" />
        </mxCell>
        <mxCell id="4KxzYod9J9JX9YI3FSrh-63" value="&lt;b&gt;Training Parameter&lt;/b&gt;" style="swimlane;fontStyle=0;childLayout=stackLayout;horizontal=1;startSize=30;horizontalStack=0;resizeParent=1;resizeParentMax=0;resizeLast=0;collapsible=1;marginBottom=0;whiteSpace=wrap;html=1;fillColor=#fff2cc;strokeColor=#d6b656;" parent="1" vertex="1">
          <mxGeometry x="238" y="687" width="162" height="90" as="geometry" />
        </mxCell>
        <mxCell id="4KxzYod9J9JX9YI3FSrh-64" value="Batch Size = 32&amp;nbsp;" style="text;strokeColor=none;fillColor=none;align=left;verticalAlign=middle;spacingLeft=4;spacingRight=4;overflow=hidden;points=[[0,0.5],[1,0.5]];portConstraint=eastwest;rotatable=0;whiteSpace=wrap;html=1;" parent="4KxzYod9J9JX9YI3FSrh-63" vertex="1">
          <mxGeometry y="30" width="162" height="30" as="geometry" />
        </mxCell>
        <mxCell id="4KxzYod9J9JX9YI3FSrh-65" value="Steps = 80 000" style="text;strokeColor=none;fillColor=none;align=left;verticalAlign=middle;spacingLeft=4;spacingRight=4;overflow=hidden;points=[[0,0.5],[1,0.5]];portConstraint=eastwest;rotatable=0;whiteSpace=wrap;html=1;" parent="4KxzYod9J9JX9YI3FSrh-63" vertex="1">
          <mxGeometry y="60" width="162" height="30" as="geometry" />
        </mxCell>
        <mxCell id="4KxzYod9J9JX9YI3FSrh-68" value="" style="whiteSpace=wrap;html=1;shape=mxgraph.basic.document;fillColor=#f5f5f5;fontColor=#333333;strokeColor=#666666;" parent="1" vertex="1">
          <mxGeometry x="484" y="40" width="320" height="381" as="geometry" />
        </mxCell>
        <mxCell id="4KxzYod9J9JX9YI3FSrh-69" value="2" style="shape=cylinder3;whiteSpace=wrap;html=1;boundedLbl=1;backgroundOutline=1;size=15;fillColor=#dae8fc;strokeColor=#6c8ebf;" parent="1" vertex="1">
          <mxGeometry x="564" y="230" width="60" height="47" as="geometry" />
        </mxCell>
        <mxCell id="4KxzYod9J9JX9YI3FSrh-70" value="24" style="shape=cylinder3;whiteSpace=wrap;html=1;boundedLbl=1;backgroundOutline=1;size=15;fillColor=#e1d5e7;strokeColor=#9673a6;" parent="1" vertex="1">
          <mxGeometry x="564" y="190" width="60" height="70" as="geometry" />
        </mxCell>
        <mxCell id="4KxzYod9J9JX9YI3FSrh-71" value="Hand Pressures" style="text;html=1;align=center;verticalAlign=middle;resizable=0;points=[];autosize=1;strokeColor=none;fillColor=none;" parent="1" vertex="1">
          <mxGeometry x="619" y="215" width="110" height="30" as="geometry" />
        </mxCell>
        <mxCell id="4KxzYod9J9JX9YI3FSrh-73" value="" style="sketch=0;pointerEvents=1;shadow=0;dashed=0;html=1;strokeColor=none;fillColor=#505050;labelPosition=center;verticalLabelPosition=bottom;verticalAlign=top;outlineConnect=0;align=center;shape=mxgraph.office.devices.video_camera;" parent="1" vertex="1">
          <mxGeometry x="513" y="100" width="52" height="25" as="geometry" />
        </mxCell>
        <mxCell id="4KxzYod9J9JX9YI3FSrh-115" style="edgeStyle=orthogonalEdgeStyle;rounded=0;orthogonalLoop=1;jettySize=auto;html=1;exitX=0.321;exitY=1.007;exitDx=0;exitDy=0;exitPerimeter=0;" parent="1" source="4KxzYod9J9JX9YI3FSrh-68" target="4KxzYod9J9JX9YI3FSrh-8" edge="1">
          <mxGeometry relative="1" as="geometry">
            <mxPoint x="622" y="418" as="sourcePoint" />
          </mxGeometry>
        </mxCell>
        <mxCell id="4KxzYod9J9JX9YI3FSrh-74" value="data.json" style="text;html=1;align=center;verticalAlign=middle;resizable=0;points=[];autosize=1;strokeColor=none;fillColor=none;" parent="1" vertex="1">
          <mxGeometry x="587" y="388" width="70" height="30" as="geometry" />
        </mxCell>
        <mxCell id="4KxzYod9J9JX9YI3FSrh-75" value="States&lt;div&gt;50&lt;/div&gt;" style="text;html=1;align=center;verticalAlign=middle;resizable=0;points=[];autosize=1;strokeColor=none;fillColor=none;" parent="1" vertex="1">
          <mxGeometry x="494" y="164" width="60" height="40" as="geometry" />
        </mxCell>
        <mxCell id="4KxzYod9J9JX9YI3FSrh-76" value="Actions&lt;div&gt;28-30&lt;/div&gt;" style="text;html=1;align=center;verticalAlign=middle;resizable=0;points=[];autosize=1;strokeColor=none;fillColor=none;" parent="1" vertex="1">
          <mxGeometry x="494" y="313" width="60" height="40" as="geometry" />
        </mxCell>
        <mxCell id="4KxzYod9J9JX9YI3FSrh-77" value="Camera Images&lt;div&gt;4&lt;/div&gt;" style="text;html=1;align=center;verticalAlign=middle;resizable=0;points=[];autosize=1;strokeColor=none;fillColor=none;" parent="1" vertex="1">
          <mxGeometry x="484" y="45" width="110" height="40" as="geometry" />
        </mxCell>
        <mxCell id="4KxzYod9J9JX9YI3FSrh-80" value="left_wrist" style="rounded=0;whiteSpace=wrap;html=1;fillColor=#ffe6cc;strokeColor=#d79b00;" parent="1" vertex="1">
          <mxGeometry x="610" y="51" width="105" height="20" as="geometry" />
        </mxCell>
        <mxCell id="4KxzYod9J9JX9YI3FSrh-81" value="right_wrist" style="rounded=0;whiteSpace=wrap;html=1;fillColor=#fff2cc;strokeColor=#d6b656;" parent="1" vertex="1">
          <mxGeometry x="610" y="71" width="105" height="20" as="geometry" />
        </mxCell>
        <mxCell id="4KxzYod9J9JX9YI3FSrh-82" value="left_active" style="rounded=0;whiteSpace=wrap;html=1;fillColor=#f8cecc;strokeColor=#b85450;" parent="1" vertex="1">
          <mxGeometry x="610" y="91" width="105" height="20" as="geometry" />
        </mxCell>
        <mxCell id="4KxzYod9J9JX9YI3FSrh-83" value="right_active" style="rounded=0;whiteSpace=wrap;html=1;fillColor=#e1d5e7;strokeColor=#9673a6;" parent="1" vertex="1">
          <mxGeometry x="610" y="111" width="105" height="20" as="geometry" />
        </mxCell>
        <mxCell id="4KxzYod9J9JX9YI3FSrh-87" value="14" style="shape=cylinder3;whiteSpace=wrap;html=1;boundedLbl=1;backgroundOutline=1;size=15;fillColor=#ffe6cc;strokeColor=#d79b00;" parent="1" vertex="1">
          <mxGeometry x="564" y="170" width="60" height="50" as="geometry" />
        </mxCell>
        <mxCell id="4KxzYod9J9JX9YI3FSrh-90" value="Arm Joint Positions" style="text;html=1;align=center;verticalAlign=middle;resizable=0;points=[];autosize=1;strokeColor=none;fillColor=none;" parent="1" vertex="1">
          <mxGeometry x="617" y="160" width="130" height="30" as="geometry" />
        </mxCell>
        <mxCell id="4KxzYod9J9JX9YI3FSrh-93" value="Hand Joint Positions" style="text;html=1;align=center;verticalAlign=middle;resizable=0;points=[];autosize=1;strokeColor=none;fillColor=none;" parent="1" vertex="1">
          <mxGeometry x="619" y="182" width="130" height="30" as="geometry" />
        </mxCell>
        <mxCell id="4KxzYod9J9JX9YI3FSrh-94" value="14" style="shape=cylinder3;whiteSpace=wrap;html=1;boundedLbl=1;backgroundOutline=1;size=15;fillColor=#f5f5f5;strokeColor=#666666;fontColor=#333333;" parent="1" vertex="1">
          <mxGeometry x="564" y="150" width="60" height="50" as="geometry" />
        </mxCell>
        <mxCell id="4KxzYod9J9JX9YI3FSrh-95" value="Active Cam&lt;div&gt;Joint Positions&lt;/div&gt;" style="text;html=1;align=center;verticalAlign=middle;resizable=0;points=[];autosize=1;strokeColor=none;fillColor=none;" parent="1" vertex="1">
          <mxGeometry x="619" y="245" width="100" height="40" as="geometry" />
        </mxCell>
        <mxCell id="4KxzYod9J9JX9YI3FSrh-96" value="2" style="shape=cylinder3;whiteSpace=wrap;html=1;boundedLbl=1;backgroundOutline=1;size=15;fillColor=#dae8fc;strokeColor=#6c8ebf;" parent="1" vertex="1">
          <mxGeometry x="564" y="333" width="60" height="47" as="geometry" />
        </mxCell>
        <mxCell id="4KxzYod9J9JX9YI3FSrh-97" value="14" style="shape=cylinder3;whiteSpace=wrap;html=1;boundedLbl=1;backgroundOutline=1;size=15;fillColor=#ffe6cc;strokeColor=#d79b00;" parent="1" vertex="1">
          <mxGeometry x="564" y="313" width="60" height="50" as="geometry" />
        </mxCell>
        <mxCell id="4KxzYod9J9JX9YI3FSrh-98" value="Arm Joint Positions" style="text;html=1;align=center;verticalAlign=middle;resizable=0;points=[];autosize=1;strokeColor=none;fillColor=none;" parent="1" vertex="1">
          <mxGeometry x="617" y="303" width="130" height="30" as="geometry" />
        </mxCell>
        <mxCell id="4KxzYod9J9JX9YI3FSrh-99" value="Hand Joint Positions" style="text;html=1;align=center;verticalAlign=middle;resizable=0;points=[];autosize=1;strokeColor=none;fillColor=none;" parent="1" vertex="1">
          <mxGeometry x="619" y="324" width="130" height="30" as="geometry" />
        </mxCell>
        <mxCell id="4KxzYod9J9JX9YI3FSrh-100" value="14" style="shape=cylinder3;whiteSpace=wrap;html=1;boundedLbl=1;backgroundOutline=1;size=15;fillColor=#f5f5f5;strokeColor=#666666;fontColor=#333333;" parent="1" vertex="1">
          <mxGeometry x="564" y="293" width="60" height="50" as="geometry" />
        </mxCell>
        <mxCell id="4KxzYod9J9JX9YI3FSrh-101" value="Active Cam&lt;div&gt;Joint Positions&lt;/div&gt;" style="text;html=1;align=center;verticalAlign=middle;resizable=0;points=[];autosize=1;strokeColor=none;fillColor=none;" parent="1" vertex="1">
          <mxGeometry x="619" y="348" width="100" height="40" as="geometry" />
        </mxCell>
        <mxCell id="4KxzYod9J9JX9YI3FSrh-104" value="&lt;b&gt;&lt;font style=&quot;font-size: 18px;&quot;&gt;Filtered Dataset&lt;/font&gt;&lt;/b&gt;" style="text;html=1;align=center;verticalAlign=middle;resizable=0;points=[];autosize=1;strokeColor=none;fillColor=none;" parent="1" vertex="1">
          <mxGeometry x="542" y="1" width="160" height="40" as="geometry" />
        </mxCell>
        <mxCell id="4KxzYod9J9JX9YI3FSrh-107" value="&lt;font style=&quot;font-size: 18px;&quot;&gt;&lt;b&gt;ACT Policy&lt;/b&gt;&lt;/font&gt;" style="text;html=1;align=center;verticalAlign=middle;resizable=0;points=[];autosize=1;strokeColor=none;fillColor=none;" parent="1" vertex="1">
          <mxGeometry x="643" y="693" width="120" height="40" as="geometry" />
        </mxCell>
        <mxCell id="4KxzYod9J9JX9YI3FSrh-108" value="" style="shape=trapezoid;perimeter=trapezoidPerimeter;whiteSpace=wrap;html=1;fixedSize=1;rotation=90;fillColor=#dae8fc;strokeColor=#6c8ebf;size=14.000000000000114;" parent="1" vertex="1">
          <mxGeometry x="614" y="603" width="120" height="60" as="geometry" />
        </mxCell>
        <mxCell id="4KxzYod9J9JX9YI3FSrh-109" value="" style="shape=trapezoid;perimeter=trapezoidPerimeter;whiteSpace=wrap;html=1;fixedSize=1;rotation=-90;fillColor=#dae8fc;strokeColor=#6c8ebf;size=14;" parent="1" vertex="1">
          <mxGeometry x="684" y="602" width="120" height="60" as="geometry" />
        </mxCell>
        <mxCell id="4KxzYod9J9JX9YI3FSrh-111" value="" style="sketch=0;outlineConnect=0;fontColor=#232F3E;gradientColor=none;fillColor=#232F3D;strokeColor=none;dashed=0;verticalLabelPosition=bottom;verticalAlign=top;align=center;html=1;fontSize=12;fontStyle=0;aspect=fixed;pointerEvents=1;shape=mxgraph.aws4.gear;" parent="1" vertex="1">
          <mxGeometry x="646" y="471" width="69" height="69" as="geometry" />
        </mxCell>
        <mxCell id="4KxzYod9J9JX9YI3FSrh-112" value="" style="sketch=0;outlineConnect=0;fontColor=#232F3E;gradientColor=none;fillColor=#232F3D;strokeColor=none;dashed=0;verticalLabelPosition=bottom;verticalAlign=top;align=center;html=1;fontSize=12;fontStyle=0;aspect=fixed;pointerEvents=1;shape=mxgraph.aws4.gear;" parent="1" vertex="1">
          <mxGeometry x="698" y="436" width="69" height="69" as="geometry" />
        </mxCell>
        <mxCell id="4KxzYod9J9JX9YI3FSrh-117" value="&lt;font style=&quot;font-size: 16px;&quot;&gt;&lt;b&gt;ACT Model&lt;/b&gt;&lt;/font&gt;" style="rounded=1;whiteSpace=wrap;html=1;fillColor=#ffe6cc;strokeColor=#d79b00;" parent="1" vertex="1">
          <mxGeometry x="469" y="817" width="120" height="50" as="geometry" />
        </mxCell>
        <mxCell id="4KxzYod9J9JX9YI3FSrh-122" value="" style="shape=flexArrow;endArrow=classic;startArrow=classic;html=1;rounded=0;" parent="1" edge="1">
          <mxGeometry width="100" height="100" relative="1" as="geometry">
            <mxPoint x="528.66" y="815" as="sourcePoint" />
            <mxPoint x="528.66" y="693" as="targetPoint" />
          </mxGeometry>
        </mxCell>
        <mxCell id="4KxzYod9J9JX9YI3FSrh-125" style="edgeStyle=orthogonalEdgeStyle;rounded=0;orthogonalLoop=1;jettySize=auto;html=1;exitX=0.5;exitY=0;exitDx=0;exitDy=0;exitPerimeter=0;entryX=0.425;entryY=0.977;entryDx=0;entryDy=0;entryPerimeter=0;" parent="1" source="4KxzYod9J9JX9YI3FSrh-5" target="4KxzYod9J9JX9YI3FSrh-51" edge="1">
          <mxGeometry relative="1" as="geometry" />
        </mxCell>
        <mxCell id="OsjNQ7yL5HzrJW9Y9b05-5" style="edgeStyle=orthogonalEdgeStyle;rounded=0;orthogonalLoop=1;jettySize=auto;html=1;exitX=1;exitY=0.5;exitDx=0;exitDy=0;entryX=0;entryY=0.5;entryDx=0;entryDy=0;" edge="1" parent="1" source="4KxzYod9J9JX9YI3FSrh-64" target="4KxzYod9J9JX9YI3FSrh-8">
          <mxGeometry relative="1" as="geometry" />
        </mxCell>
        <mxCell id="OsjNQ7yL5HzrJW9Y9b05-6" style="edgeStyle=orthogonalEdgeStyle;rounded=0;orthogonalLoop=1;jettySize=auto;html=1;exitX=1;exitY=0.5;exitDx=0;exitDy=0;entryX=0;entryY=0.5;entryDx=0;entryDy=0;" edge="1" parent="1" source="4KxzYod9J9JX9YI3FSrh-60" target="4KxzYod9J9JX9YI3FSrh-117">
          <mxGeometry relative="1" as="geometry" />
        </mxCell>
        <mxCell id="OsjNQ7yL5HzrJW9Y9b05-7" value="" style="rounded=1;whiteSpace=wrap;html=1;fillColor=#fff2cc;strokeColor=#d6b656;" vertex="1" parent="1">
          <mxGeometry x="649" y="590" width="10" height="86" as="geometry" />
        </mxCell>
        <mxCell id="OsjNQ7yL5HzrJW9Y9b05-8" value="" style="rounded=1;whiteSpace=wrap;html=1;fillColor=#fff2cc;strokeColor=#d6b656;" vertex="1" parent="1">
          <mxGeometry x="662" y="590" width="10" height="86" as="geometry" />
        </mxCell>
        <mxCell id="OsjNQ7yL5HzrJW9Y9b05-9" value="" style="rounded=1;whiteSpace=wrap;html=1;fillColor=#fff2cc;strokeColor=#d6b656;" vertex="1" parent="1">
          <mxGeometry x="675" y="590" width="10" height="86" as="geometry" />
        </mxCell>
        <mxCell id="OsjNQ7yL5HzrJW9Y9b05-10" value="" style="rounded=1;whiteSpace=wrap;html=1;fillColor=#fff2cc;strokeColor=#d6b656;" vertex="1" parent="1">
          <mxGeometry x="688" y="590" width="10" height="86" as="geometry" />
        </mxCell>
        <mxCell id="OsjNQ7yL5HzrJW9Y9b05-12" value="" style="rounded=1;whiteSpace=wrap;html=1;fillColor=#fff2cc;strokeColor=#d6b656;" vertex="1" parent="1">
          <mxGeometry x="733" y="590" width="6" height="86" as="geometry" />
        </mxCell>
        <mxCell id="OsjNQ7yL5HzrJW9Y9b05-15" value="" style="rounded=1;whiteSpace=wrap;html=1;fillColor=#fff2cc;strokeColor=#d6b656;" vertex="1" parent="1">
          <mxGeometry x="725" y="590" width="6" height="86" as="geometry" />
        </mxCell>
        <mxCell id="OsjNQ7yL5HzrJW9Y9b05-16" value="" style="rounded=1;whiteSpace=wrap;html=1;fillColor=#fff2cc;strokeColor=#d6b656;" vertex="1" parent="1">
          <mxGeometry x="717" y="590" width="6" height="86" as="geometry" />
        </mxCell>
        <mxCell id="OsjNQ7yL5HzrJW9Y9b05-17" value="" style="rounded=1;whiteSpace=wrap;html=1;fillColor=#fff2cc;strokeColor=#d6b656;" vertex="1" parent="1">
          <mxGeometry x="741" y="590" width="6" height="86" as="geometry" />
        </mxCell>
        <mxCell id="OsjNQ7yL5HzrJW9Y9b05-18" value="" style="rounded=1;whiteSpace=wrap;html=1;fillColor=#fff2cc;strokeColor=#d6b656;arcSize=18;" vertex="1" parent="1">
          <mxGeometry x="749" y="590" width="6" height="86" as="geometry" />
        </mxCell>
        <mxCell id="OsjNQ7yL5HzrJW9Y9b05-20" value="" style="rounded=1;whiteSpace=wrap;html=1;fillColor=#fff2cc;strokeColor=#d6b656;" vertex="1" parent="1">
          <mxGeometry x="765" y="590" width="6" height="86" as="geometry" />
        </mxCell>
        <mxCell id="OsjNQ7yL5HzrJW9Y9b05-21" value="" style="rounded=1;whiteSpace=wrap;html=1;fillColor=#fff2cc;strokeColor=#d6b656;" vertex="1" parent="1">
          <mxGeometry x="757" y="590" width="6" height="86" as="geometry" />
        </mxCell>
      </root>
    </mxGraphModel>
  </diagram>
</mxfile>
